PathFileType	4	(X/Y/Z)	/home/abdul/Desktop/myosuite/custom_workspace/IK/output/S3_12_2.trc
DataRate	CameraRate	NumFrames	NumMarkers	Units	OrigDataRate	OrigDataStartFrame	OrigNumFrames
200.0	200.0	44	3	mm	200.0	478	955
Frame#	Time	V_Shoulder			V_Elbow			V_Wrist		
		X1	Y1	Z1	X2	Y2	Z2	X3	Y3	Z3

478	2.385	-121.9262217919168	669.499619724495	321.074089399182	-326.0559408270777	435.08918899864875	135.2880115434105	-103.93785263240267	376.64557541593877	317.09708070143074
479	2.39	-121.94160451096606	669.5207456510462	321.05553577895955	-326.09100294123294	435.42011661218226	134.86359882688043	-104.00658465042896	375.1155350809902	316.20975776316664
480	2.395	-121.95720417881496	669.540333250047	321.0370626976186	-326.1246845071797	435.75248443946134	134.43410980938134	-104.07566010768541	373.55951191711404	315.2924113689289
481	2.4	-121.97298860118859	669.5582825506253	321.01866650886967	-326.15697205873045	436.0861516764835	133.9995773288819	-104.14510222536987	371.9784875299954	314.34461564740735
482	2.405	-121.9889261921885	669.5744941698194	321.0003421746408	-326.18785630552463	436.42097737825156	133.560036786821	-104.21493884888358	370.37348804918554	313.3659732474961
483	2.41	-122.00498603758234	669.5888695717831	320.98208328432094	-326.217331975701	436.7568204691373	133.11552651834188	-104.28520239700858	368.74558224876773	312.35611714797994
484	2.415	-122.02113795635405	669.6013113262071	320.96388207475064	-326.2453976440644	437.093539754594	132.66608815223282	-104.35592978961637	367.09587954557867	311.314712399506
485	2.42	-122.03735256042086	669.611723365207	320.9457294509307	-326.2720555468677	437.43099393518406	132.21176695868198	-104.42716235462888	365.4255278803581	310.2414577923155
486	2.425	-122.0536013124278	669.6200112379269	320.92761500742654	-326.2973113843817	437.7690416238961	131.75261218296902	-104.49894571505628	363.7357114876487	309.13608744344003
487	2.43	-122.06985658153525	669.6260823621154	320.90952705046374	-326.32117411248623	438.1075413677213	131.2886773632391	-104.5713296570292	362.0276485606963	307.9983722973168
488	2.435	-122.08609169712004	669.6298462719301	320.8914526207182	-326.34365572455806	438.4463516744464	130.82002063054352	-104.64436797982195	360.30258881801797	306.82812153404836
489	2.44	-122.10228100031561	669.6312148612345	320.87337751681895	-326.36477102498	438.7853310455939	130.34670498937987	-104.71811832893167	358.56181097869035	305.625183879824
490	2.445	-122.11839989332121	669.6301026216667	320.85528631958897	-326.38453739562635	439.12433801640805	129.86879857702536	-104.79264201333372	356.8066201537887	304.3894488143291
491	2.45	-122.134424886416	669.6264268747608	320.8371624170623	-326.402974556715	439.4632312037336	129.3863749000331	-104.86800380807631	355.0383451617454	303.1208476703016
492	2.455	-122.15033364261774	669.6201079974313	320.81898803032203	-326.42010432343534	439.80186936257974	128.89951304634582	-104.9442717434083	353.25833577571996	301.81935462074256
493	2.46	-122.16610501993132	669.6110696401308	320.80074424021365	-326.4359503597799	440.1401114520926	128.4082978715813	-105.02151688165338	351.4679599113624	300.4849875496591
494	2.465	-122.18171911113687	669.599238937029	320.78241101499503	-326.45053793101306	440.4778167115814	127.91282015815477	-105.09981308305152	349.6686007636119	299.1178088026042
495	2.47	-122.19715728107208	669.5845467075688	320.7639672389894	-326.4638936562113	440.8148447471544	127.41317674602419	-105.17923676178631	347.86165390140275	297.7179258136854
496	2.475	-122.21240220136754	669.5669276487899	320.7453907423144	-326.47604526229856	441.15105562942705	126.9094706339786	-105.25986663340497	346.04852432934575	296.28549160613704
497	2.48	-122.22743788259855	669.5463205178277	320.7266583317628	-326.4870213409844	441.4863100026582	126.40181105053108	-105.34178345481632	344.2306235256135	294.8207051639914
498	2.485	-122.2422497038212	669.5226683040354	320.7077458229134	-326.4968511099854	441.82046920556076	125.89031349363012	-105.42506975802476	342.40936646538506	293.3238116728397
499	2.49	-122.25682443946397	669.4959183901974	320.68862807355407	-326.5055641798736	442.15339540391625	125.37509973856265	-105.5098095787221	340.5861686392914	291.7951026281452
500	2.495	-122.27115028355077	669.4660227023465	320.66927901849584	-326.51319032785375	442.4849517350003	124.85629781358875	-105.59608818081936	338.7624430763542	290.2349158100527
501	2.5	-122.28521687123448	669.432937847721	320.6496717058605	-326.51975927971455	442.8150024637026	124.33404194302057	-105.68399177795537	336.93959738092235	288.64363512413615
502	2.505	-122.2990152976235	669.3966252404449	320.62977833491794	-326.5253005011391	443.1434131500961	123.8084724576363	-105.77360725297066	335.11903079307774	287.02169030802656
503	2.51	-122.31253813388754	669.357051214549	320.6095702955499	-326.529842999486	443.47005082808187	123.27973567250045	-105.86502187628506	333.3021312819186	285.36955650437983
504	2.515	-122.32577944063144	669.3141871239868	320.5890182094092	-326.53341513707596	443.79478419460963	122.74798373244555	-105.95832302406512	331.49027268101395	283.6877537011536
505	2.52	-122.33873477852887	669.2680094293523	320.56809197284264	-326.53604445692804	444.11748380884194	122.2133744256557	-106.05359789701598	329.68481187517625	281.9768460406892
506	2.525	-122.35140121621077	669.218499771035	320.546760801633	-326.5377575217974	444.4380223005101	121.67607096597655	-106.1509332405802	327.887086047509	280.2374409996069
507	2.53	-122.36377733540503	669.1656450286035	320.52499327761467	-326.53857976726226	444.75627458658425	121.13624174476067	-106.25041506727608	326.0984099954567	278.4701884420423
508	2.535	-122.37586323332755	669.10943736625	320.50275739720314	-326.53853536950226	445.07211809526666	120.5940600532382	-106.35212838185976	324.3200735243155	276.67577954925946
509	2.54	-122.38766052232512	669.0498742641688	320.4800206218739	-326.537647128295	445.38543299620477	120.0497037765806	-106.45615690994836	322.5533389263595	274.85494562917347
510	2.545	-122.39917232677529	668.9869585357978	320.45674993061164	-326.53593636564244	445.69610243571753	119.50335506099876	-106.56258283069926	320.79943855339326	273.00845680980467
511	2.55	-122.41040327724734	668.9206983308904	320.43291187434244	-326.53342284031544	446.0040127757328	118.95519995538353	-106.67148651409869	319.0595724901649	271.13712062115314
512	2.555	-122.42135950193325	668.8511071244351	320.4084726323485	-326.53012467848544	446.3090538350474	118.40542802915817	-106.78294626337728	317.3349063356633	269.2417804704346
513	2.56	-122.43204861535729	668.7782036914882	320.3833980706518	-326.5260583204846	446.61111913144657	117.8542319681645	-106.89703806303436	315.62656909888244	267.32331401604404
514	2.565	-122.4424797043759	668.7020120680307	320.3576538023419	-326.5212384836152	446.91010612315205	117.30180715054922	-107.01383533292332	313.9356512151641	265.38263144601547
515	2.57	-122.45266331148098	668.622561498004	320.33120524980546	-326.5156781408046	447.2059164480182	116.74835120475097	-107.13340868882204	312.26320268873405	263.4206736671165
516	2.575	-122.4626114154214	668.5398863667298	320.3040177088073	-326.5093885147845	447.4984561588535	116.19406355181286	-107.25582570988689	310.61023136652636	261.438410411058
517	2.58	-122.47233740915964	668.4540261209636	320.2760564143505	-326.50237908735545	447.78763595321976	115.63914493435793	-107.38115071336702	308.9777013478483	259.4368382646047
518	2.585	-122.4818560751824	668.3650251758687	320.2472866082361	-326.4946576231892	448.07337139604687	115.08379693466509	-107.50944453693529	307.3665315338782	257.4169786306411
519	2.59	-122.49118355818634	668.2729328092508	320.21767360822344	-326.4862302075154	448.3555831334065	114.52822148437039	-107.64076432897338	305.777594320414	255.37987562747892
520	2.595	-122.5003373351618	668.177803043428	320.18718287867955	-326.4771012969437	448.63419709580194	113.9726203683922	-107.77516334713266	304.21171443670346	253.32659393388468
521	2.6	-122.50933618290031	668.0796945151513	320.155780102592	-326.4672737825829	448.90914468936705	113.41719472573669	-107.91269076547657	302.6696679325899	251.2582165874548
